<?xml version="1.0" encoding="UTF-8" standalone="no"?>
<svg
   xmlns:dc="http://purl.org/dc/elements/1.1/"
   xmlns:cc="http://creativecommons.org/ns#"
   xmlns:rdf="http://www.w3.org/1999/02/22-rdf-syntax-ns#"
   xmlns:svg="http://www.w3.org/2000/svg"
   xmlns="http://www.w3.org/2000/svg"
   xmlns:sodipodi="http://sodipodi.sourceforge.net/DTD/sodipodi-0.dtd"
   xmlns:inkscape="http://www.inkscape.org/namespaces/inkscape"
   width="117.39455mm"
   height="117.40161mm"
   viewBox="0 0 117.39455 117.40161"
   version="1.1"
   id="svg847"
   sodipodi:docname="logo.svg"
   inkscape:version="1.0.1 (3bc2e813f5, 2020-09-07)">
  <sodipodi:namedview
     pagecolor="#ffffff"
     bordercolor="#666666"
     borderopacity="1"
     objecttolerance="10"
     gridtolerance="10"
     guidetolerance="10"
     inkscape:pageopacity="0"
     inkscape:pageshadow="2"
     inkscape:window-width="1920"
     inkscape:window-height="1001"
     id="namedview7"
     showgrid="false"
     inkscape:lockguides="true"
     inkscape:zoom="0.73940797"
     inkscape:cx="385.8219"
     inkscape:cy="281.18675"
     inkscape:window-x="-9"
     inkscape:window-y="-9"
     inkscape:window-maximized="1"
     inkscape:current-layer="svg847"
     fit-margin-top="0"
     fit-margin-left="0"
     fit-margin-right="0"
     fit-margin-bottom="0" />
  <defs
     id="defs841" />
  <metadata
     id="metadata844">
    <rdf:RDF>
      <cc:Work
         rdf:about="">
        <dc:format>image/svg+xml</dc:format>
        <dc:type
           rdf:resource="http://purl.org/dc/dcmitype/StillImage" />
        <dc:title></dc:title>
      </cc:Work>
    </rdf:RDF>
  </metadata>
  <g
     inkscape:label="Clip"
     id="use848"
     transform="translate(-48.648151,-84.928715)">
    <g
       id="g853">
      <path
         d="m 163.93223,143.63092 c 0.45211,0.86274 0.80521,1.66896 1.05931,2.41867 0.0493,0.14555 0.5167,1.6218 0.6941,2.99198 0.0406,0.31393 0.39139,3.26685 -0.4804,6.31219 -0.17021,0.59453 -0.90711,3.08024 -2.85321,5.49705 -0.5535,0.68731 -1.16419,1.32552 -1.83209,1.91457 0.0694,0.55411 0.11079,0.92398 0.1241,1.10957 0.0297,0.76077 0.0413,1.26797 0.0347,1.52151 -0.0478,1.8385 -0.56741,7.00731 -5.12321,11.1652 -1.40749,1.28451 -3.02769,2.2946 -4.8606,3.03031 -0.18199,0.8665 -0.43559,1.70849 -0.76089,2.52609 -0.43971,0.9827 -0.77541,1.6734 -1.00701,2.0721 -0.92709,1.5958 -3.87019,5.9078 -9.88339,7.4185 -0.14908,0.0375 -1.50472,0.3761 -3.04014,0.461 -0.1083,0.006 -0.26742,-0.0422 -0.36135,0.0114 -0.0939,0.0536 -0.13132,0.21399 -0.19072,0.30369 -0.31301,0.4642 -0.61361,0.8741 -0.90178,1.2297 -0.19434,0.2398 -2.03459,2.476 -4.76079,3.9517 -2.70508,1.4642 -6.95417,2.858 -12.26821,1.2717 -0.10387,-0.031 -0.23671,-0.1301 -0.34354,-0.1115 -0.10682,0.0187 -0.19743,0.1567 -0.28429,0.22101 -0.80474,0.54069 -1.22899,0.82409 -1.27273,0.85039 -0.2643,0.1589 -1.47962,0.8539 -2.78646,1.3274 -0.26134,0.0947 -2.69835,0.958 -5.4816,0.958 -0.31656,0 -3.29048,-0.0204 -6.20574,-1.2406 -0.14198,-0.0594 -1.432183,-0.6017 -2.709523,-1.4553 -0.0624,-0.0417 -0.36559,-0.2619 -0.90971,-0.6608 -0.64934,0.1908 -1.01049,0.2952 -1.08351,0.3133 -5.39703,1.3358 -10.11141,-0.5893 -12.21798,-1.8696 -0.26359,-0.1602 -2.721,-1.6837 -4.53728,-4.1604 -0.0884,-0.1204 -0.29714,-0.43 -0.6263,-0.92869 -0.0489,-0.0279 -0.84585,-0.043 -1.12655,-0.0719 -1.03181,-0.1068 -2.03901,-0.3093 -3.02158,-0.6074 -2.23532,-0.6781 -6.51634,-2.701 -9.13675,-7.21159 -0.51719,-0.893 -0.94111,-1.8223 -1.27171,-2.7879 -0.19954,-0.6285 -0.34023,-1.1153 -0.42209,-1.4604 -0.0248,-0.1044 -0.004,-0.2678 -0.0741,-0.3499 -0.0697,-0.0822 -0.23595,-0.0907 -0.33564,-0.1329 -0.28331,-0.1201 -2.93143,-1.2632 -5.08961,-3.4391 -1.30077,-1.3114 -4.69985,-5.26424 -4.55976,-11.38558 0.0663,-0.95978 0.10249,-1.46482 0.10856,-1.51511 0.0128,-0.10648 0.0885,-0.25312 0.0514,-0.35389 -0.0371,-0.1008 -0.19031,-0.16497 -0.26938,-0.2384 -0.11209,-0.10409 -1.31055,-1.298 -2.0292,-2.28534 -0.55088,-0.75684 -1.88583,-2.63572 -2.58788,-5.6655 -0.14231,-0.61419 -0.72087,-3.19764 -0.16066,-6.29914 0.29155,-1.61419 0.83654,-3.1629 1.63493,-4.64606 -0.25684,-0.49719 -0.42361,-0.83074 -0.5003,-1.00063 -0.27485,-0.65675 -0.46116,-1.1294 -0.55896,-1.41801 -0.0986,-0.29107 -0.53653,-1.77404 -0.69419,-2.99197 -0.0813,-0.6279 -0.39141,-3.26685 0.4804,-6.31223 0.17018,-0.59451 1.10163,-3.32193 2.85316,-5.49707 0.44277,-0.54983 1.05347,-1.18804 1.83206,-1.91458 -0.0641,-0.47982 -0.10541,-0.84964 -0.12402,-1.10946 -0.0245,-0.96363 -0.0361,-1.4708 -0.0347,-1.52152 0.0637,-2.45132 1.02301,-7.423 5.12321,-11.16516 1.40745,-1.28455 3.02764,-2.29465 4.86054,-3.03033 0.35257,-1.64359 0.94184,-3.1764 1.76784,-4.59827 1.23609,-2.12784 4.47165,-6.058686 9.88353,-7.418486 1.00311,-0.25073 2.01647,-0.40442 3.04007,-0.461 0.10832,-0.006 0.26748,0.0422 0.36143,-0.0114 0.094,-0.0536 0.13128,-0.21396 0.19068,-0.30371 0.0421,-0.0635 0.75772,-1.05188 0.90182,-1.22968 0.38868,-0.47964 2.03458,-2.47604 4.76076,-3.95169 2.70507,-1.4642 6.95419,-2.85809 12.26824,-1.2717 0.10382,0.031 0.23669,0.1301 0.3435,0.11146 0.10684,-0.0186 0.19743,-0.15665 0.2843,-0.22089 0.6297,-0.43552 1.05393,-0.71903 1.27272,-0.85053 0.13215,-0.0794 1.334473,-0.80114 2.786513,-1.32733 0.78399,-0.28409 2.97661,-0.95798 5.48154,-0.95801 0.63315,0 3.29051,0.0205 6.20577,1.24063 0.14199,0.0594 1.43219,0.60157 2.70951,1.45518 0.0312,0.0208 0.33445,0.24118 0.90975,0.66095 0.68581,-0.1999 1.04697,-0.30436 1.08346,-0.31339 2.39868,-0.59372 7.47823,-1.01111 12.21798,1.86957 1.81402,1.1225 3.32647,2.50934 4.53732,4.16043 0.0442,0.0602 0.25294,0.36981 0.62626,0.92871 0.67618,0.0402 1.0517,0.0642 1.12656,0.0719 0.46002,0.0474 1.98989,0.2944 3.02158,0.60742 4.4707,1.35629 7.3899,4.204556 9.13679,7.211636 0.077,0.1326 0.82541,1.48425 1.27171,2.78778 0.18779,0.57932 0.32849,1.06616 0.4221,1.46051 0.0248,0.1044 0.004,0.26767 0.0741,0.34986 0.0697,0.0822 0.23601,0.0907 0.3356,0.13293 0.28341,0.12009 2.93141,1.26318 5.0896,3.43906 1.3008,1.31143 4.69981,5.26428 4.55971,11.38562 -0.0602,0.90951 -0.0963,1.41455 -0.1084,1.51507 -0.0129,0.10651 -0.0885,0.25308 -0.0514,0.35385 0.0371,0.10077 0.19029,0.16501 0.26939,0.23844 0.11211,0.10409 1.3105,1.29797 2.02921,2.28531 0.18359,0.25225 1.88589,2.63577 2.58779,5.66552 0.0712,0.3071 0.7209,3.19767 0.1607,6.29917 -0.2916,1.61419 -0.83649,3.16287 -1.6349,4.64602 z M 81.768277,126.55835 c -0.21418,0.0272 -2.39946,0.30319 -4.31893,0.002 0.40872,0.497 1.32525,1.72924 2.15787,3.69952 0.14034,-0.16254 1.51884,-1.88602 2.16106,-3.70145 z m -18.09297,-14.99377 c -2.69167,1.56747 -6.11119,4.52335 -6.2483,10.69937 0.85695,-0.4538 4.76698,-2.38324 9.57349,-1.66861 -0.90856,-1.12744 -3.17014,-4.22787 -3.32519,-9.03076 z m -5.72902,14.27847 c 0.44014,1.461 2.04191,5.57694 6.71286,7.69595 1.66696,0.75626 7.10691,2.5159 12.19812,-0.83058 -0.45821,-1.50627 -2.14376,-5.78773 -7.01127,-7.86769 -2.19257,-0.93692 -6.90471,-2.23324 -11.89971,1.00232 z m 79.900593,28.71051 c 0.45826,1.50623 2.14376,5.78766 7.01126,7.86762 2.1926,0.93689 6.9047,2.23321 11.8997,-1.00226 -0.58691,-1.948 -2.50901,-5.78885 -6.7128,-7.69599 -3.334,-1.51245 -8.1251,-1.8464 -12.19816,0.83063 z m 0.20197,-7.74069 c -0.0757,0.20016 -0.77482,2.28599 -0.75041,4.20914 1.43315,-0.73151 2.7858,-1.21897 4.0579,-1.46244 -0.556,-0.32881 -2.1363,-1.49075 -3.30749,-2.7467 z m 1.73709,-3.23093 c 1.9031,2.52097 5.0751,4.77542 9.3099,5.02213 2.38439,0.13892 7.26079,-0.23648 10.83539,-4.96612 -1.8381,-2.44797 -5.38459,-4.67349 -8.9701,-4.96164 -1.82809,-0.14692 -7.54839,0.0394 -11.17519,4.90563 z m -1.73697,-3.13305 c 0.14637,-0.15698 1.82377,-1.8711 3.30727,-2.74646 -1.4263,-0.32159 -2.77894,-0.80909 -4.05803,-1.46253 -0.002,0.21369 -0.0135,2.21008 0.75076,4.20899 z m 21.43757,18.54391 c 1.98719,-2.38324 4.1781,-6.31729 2.1706,-12.16724 -2.26911,2.50681 -5.5607,4.23307 -8.419,4.80561 0.82909,0.50146 4.44129,2.90085 6.2484,7.36163 z M 89.216607,118.93592 c -1.44825,-0.28009 -2.80135,-0.76633 -4.05924,-1.45877 0.0706,0.20184 0.64716,2.07318 0.7481,4.2062 1.38589,-0.83954 2.48963,-1.75534 3.31114,-2.74743 z m -11.81459,-10.5976 c -0.30921,-0.91113 -1.51678,-5.04504 -8e-4,-9.610626 -3.68586,0.67515 -7.53389,2.759516 -9.57243,7.941036 0.96224,-0.13656 5.30377,-0.62719 9.57335,1.66959 z m 2.52292,6.38489 c -2.59494,-3.12616 -6.87393,-5.90396 -12.84637,-4.51563 -0.18307,3.04349 0.72098,6.64536 3.64603,9.50205 1.30487,1.27438 5.80809,4.76752 11.74983,3.34466 0.10012,-1.73803 0.0458,-4.81607 -2.54949,-8.33108 z m 57.888023,17.89319 c 1.33018,0.86264 5.40468,3.0711 10.48558,1.57077 5.1496,-1.52063 7.6027,-5.5044 8.4642,-8.33106 -0.85801,-0.55957 -5.18971,-2.97436 -10.1454,-1.6289 -1.7686,0.48016 -7.0795,2.58987 -8.80438,8.38919 z m 19.46287,-10.35312 c -0.0435,-4.9418 -2.50849,-8.45621 -6.24699,-10.70011 -0.0155,0.48035 -0.2962,5.27347 -3.3252,9.03217 1.44179,-0.21431 5.71639,-0.37372 9.57219,1.66794 z M 101.67118,112.0567 c 1.09016,-1.1455 3.99729,-4.72958 3.38522,-9.93765 -0.27571,-2.345976 -1.4963,-7.029226 -6.827653,-9.688716 -1.41252,1.47675 -3.81582,5.04294 -3.38409,9.596316 0.17118,1.80554 1.34994,7.34356 6.826523,10.03005 z M 86.041197,100.236 c -0.91209,-0.510166 -2.37109,-1.327116 -4.9726,-1.632536 -1.02096,2.331566 -1.62121,6.488396 0.13933,10.162016 1.30895,2.73132 4.41626,6.51147 9.88427,7.11654 0.43948,-1.01095 1.50769,-4.05127 0.84976,-7.28775 -0.60944,-2.99801 -2.42441,-6.16531 -5.90076,-8.35827 z m 5.3748,0.1022 c 0.037,-1.441126 0.62048,-5.631316 3.3235,-9.031426 -3.69717,-0.61188 -8.03395,0.0454 -11.74205,4.22494 1.4272,0.29559 5.52272,1.56448 8.41855,4.806486 z m 15.936033,9.15134 c -0.23007,0.59887 -1.11379,2.33917 -2.16136,3.6976 0.2125,0.0389 2.19884,0.39654 4.32257,-1.3e-4 -0.13094,-0.16979 -1.46677,-1.90258 -2.16121,-3.69747 z m -1e-5,-11.929746 c 1.06652,-2.68345 3.35677,-5.58872 6.24703,-7.36289 -3.26257,-1.82525 -7.5651,-2.67413 -12.49525,-7.4e-4 0.82592,0.50693 4.47072,2.8905 6.24822,7.36362 z m 20.8316,-4.94403 c -1.10628,-0.57309 -4.10527,-1.93567 -8.2199,-1.31012 0.90115,1.13351 3.21358,4.70849 3.3244,9.032526 1.28679,-1.440736 4.13613,-3.919466 8.41707,-4.806116 -0.29831,-0.34537 -1.53789,-1.77164 -3.52157,-2.91629 z m 18.69032,14.052816 c -1.3127,-3.47183 -4.0567,-6.856866 -9.5714,-7.942226 0.30314,0.91327 1.54596,5.055696 -5.3e-4,9.611966 0.85381,-0.45926 4.76135,-2.35269 9.57185,-1.66974 z m -11.77689,23.59104 c 0.0833,-0.19703 1.06862,-2.37339 2.15775,-3.69934 -0.42646,0.0676 -2.39138,0.24292 -4.31917,-0.002 0.0722,0.20142 0.75174,2.08146 2.16142,3.70133 z m -6.29843,-8.57651 c 0.0101,-0.21329 0.18002,-2.59274 0.74809,-4.20596 -0.37789,0.20684 -2.16318,1.03698 -4.05941,1.45883 0.95095,1.1344 2.05472,2.05011 3.31132,2.74713 z m -8.88514,-5.92926 c -0.0643,-0.20383 -0.72443,-2.28375 -0.7519,-4.20529 -0.99482,1.06051 -2.09813,1.97509 -3.30998,2.74368 1.42816,0.76761 2.78211,1.25482 4.06188,1.46161 z m -21.061153,-1.46173 c -1.26383,-0.75317 -2.36708,-1.66773 -3.30982,-2.74359 -0.0726,1.44467 -0.32324,2.84652 -0.75196,4.20556 0.42631,-0.0706 2.57535,-0.58868 4.06178,-1.46197 z M 116.4893,92.432774 c -1.83825,0.90979 -5.3299,3.44836 -6.49943,7.873076 -0.46375,1.75455 -1.27156,7.35724 2.94546,11.73383 1.42066,-0.70774 5.3922,-3.0925 6.61854,-8.19349 0.69052,-2.87216 0.61636,-7.541526 -3.06457,-11.413416 z m 31.14524,17.785486 c -1.4997,-0.35354 -5.9056,-1.03997 -10.09702,1.9003 -3.49028,2.4484 -5.64101,6.63767 -5.37151,10.86069 1.54838,0.36075 6.14103,1.05814 10.39653,-2.06998 1.9169,-1.40905 5.4085,-4.79596 5.072,-10.69101 z M 133.64771,98.610424 c -2.55257,0.2918 -6.49347,1.856036 -8.83076,5.200396 -1.04267,1.49192 -3.73972,6.48346 -1.29089,12.02222 2.10639,-0.24612 6.13671,-1.08249 9.05355,-5.46106 1.31392,-1.97235 3.42353,-6.33587 1.0681,-11.761556 z m 13.97773,78.444046 c 0.0917,-1.52181 0.0104,-5.93121 -3.6459,-9.50205 -2.6098,-2.54875 -6.99643,-4.4829 -11.74986,-3.34473 -0.0904,1.57036 0.0125,6.1636 3.86703,9.76427 1.73628,1.62191 5.71583,4.4337 11.52873,3.08251 z m -10.32336,1.86909 c 0.3092,0.91121 1.51639,5.04501 7.9e-4,9.6107 3.68585,-0.6753 7.53395,-2.7595 9.57245,-7.9411 -1.4434,0.205 -5.3038,0.6272 -9.57336,-1.6696 z m -11.81455,-10.5976 c 0.42136,0.0937 2.54962,0.62811 4.05916,1.45884 -0.21146,-0.60554 -0.64716,-2.07316 -0.74806,-4.20618 -1.38638,0.83911 -2.49008,1.75488 -3.3111,2.74734 z m 8.14797,20.3325 c 0.81658,-1.8653 1.84118,-6.0291 -0.13934,-10.162 -0.78533,-1.6388 -3.8087,-6.4441 -9.88424,-7.1166 -0.83761,1.9268 -2.12031,5.79621 0.25626,10.4832 2.67634,5.2782 7.39541,6.5169 9.76732,6.7954 z M 76.655187,146.81305 c -1.09394,1.17163 -2.19636,2.08713 -3.30728,2.7465 1.42625,0.32159 2.77893,0.80914 4.05804,1.46255 0.009,-1.47342 -0.24125,-2.87644 -0.75076,-4.20905 z m -15.1892,4.81812 c -1.90522,-0.38161 -5.50101,-1.58191 -8.41793,-4.80451 -1.25165,3.49378 -1.34988,7.831 2.16899,12.16745 0.18078,-0.44613 2.10255,-4.85519 6.24894,-7.36294 z m 15.93975,-15.39118 c -0.3837,0.19602 -2.14977,1.09708 -4.05784,1.46244 1.229,0.78451 2.33151,1.70008 3.30745,2.74669 0.0757,-0.20018 0.77714,-2.07228 0.75039,-4.20913 z m -15.93976,-0.60916 c -0.82918,-0.50146 -4.44129,-2.90097 -6.24842,-7.36174 -2.38443,2.86 -3.97736,6.9024 -2.17052,12.16729 0.97245,-1.07432 3.65515,-3.85145 8.41894,-4.80555 z m 5.40899,3.16257 c -5.1749,-0.67981 -9.36771,1.21262 -12.10198,4.83063 1.83798,2.44803 5.38452,4.67343 8.97008,4.96164 3.04669,0.2449 7.91101,-0.52603 11.17513,-4.90567 -1.69412,-2.24402 -4.33185,-4.1984 -8.04323,-4.8866 z m 10.01622,15.85217 c -1.33022,-0.86263 -5.40473,-3.07113 -10.48559,-1.57073 -2.28868,0.67585 -6.74104,2.6777 -8.46414,8.33092 0.858,0.55958 5.18968,2.97447 10.14539,1.62895 2.94764,-0.8003 7.25212,-3.16969 8.80434,-8.38914 z m 2.71592,2.35677 c -0.0833,0.19701 -0.93332,2.2069 -2.15774,3.6993 0.42646,-0.0676 2.39137,-0.24293 4.31917,0.002 -0.59516,-1.49564 -1.31561,-2.72937 -2.16143,-3.70129 z m 43.680983,29.92142 c -0.0246,0.9608 -0.3199,5.2536 -3.32344,9.0314 3.69714,0.6119 8.03399,-0.0454 11.74199,-4.225 -1.42719,-0.2955 -5.52273,-1.5644 -8.41855,-4.8064 z m -7.43628,-13.95389 c 1.359,0.85999 2.46223,1.77439 3.30975,2.74349 0.011,-0.6405 0.17326,-2.3709 0.75201,-4.2055 -0.21314,0.0353 -2.38935,0.4799 -4.06176,1.46201 z m 0.62356,21.86169 c 1.41262,-1.4766 3.81564,-5.0429 3.38406,-9.5963 -0.17115,-1.80549 -1.34992,-7.34359 -6.82649,-10.03 -2.18031,2.291 -3.87493,5.77111 -3.38529,9.9376 0.34464,2.9324 2.02945,7.2953 6.82772,9.6887 z M 57.428347,164.9986 c 0.0271,3.08865 0.90625,7.49476 6.24696,10.70016 0.0621,-1.92139 0.59923,-5.64925 3.32522,-9.03216 -1.92234,0.2857 -5.71643,0.37376 -9.57218,-1.668 z m 33.98763,21.92516 c -0.64344,0.7203 -3.66042,3.8209 -8.41702,4.8061 2.02866,2.3488 5.56637,5.1654 11.74138,4.2264 -0.60077,-0.7556 -3.20125,-4.228 -3.32436,-9.0325 z m 3.37468,-15.4157 c 0.48104,1.5226 0.73166,2.92431 0.7519,4.2052 0.56586,-0.6453 2.03748,-1.9366 3.30993,-2.7436 -1.28593,-0.74469 -2.63987,-1.2319 -4.06183,-1.4616 z m -13.73424,17.1434 c 2.55257,-0.2917 6.49351,-1.856 8.83072,-5.2003 1.04261,-1.492 3.73953,-6.4834 1.29089,-12.02229 -1.57977,0.1846 -6.13665,1.08249 -9.05351,5.46109 -1.31391,1.97231 -3.42345,6.3358 -1.0681,11.7615 z m -13.98681,-11.60779 c 1.99962,0.47129 6.32471,0.7459 10.09701,-1.90031 2.49308,-1.7489 5.71804,-5.43103 5.37154,-10.86065 -1.54837,-0.36076 -6.14105,-1.05816 -10.39654,2.06997 -1.9169,1.40906 -5.40842,4.79588 -5.07201,10.69099 z m 18.83593,-11.46483 c -0.0735,1.59378 -0.32284,2.99575 -0.74809,4.20596 0.18879,-0.10371 1.95246,-0.99019 4.05942,-1.45884 -0.13752,-0.16488 -1.6148,-1.80636 -3.31133,-2.74712 z m -18.07538,15.01453 c 1.09391,2.8932 3.44405,6.73619 9.57148,7.94219 -0.30315,-0.9132 -1.54563,-5.0556 5.2e-4,-9.612 -2.56141,1.3779 -6.20456,2.1478 -9.57194,1.66981 z m 39.521903,9.10889 c -0.3555,0.8944 -2.11784,4.8286 -6.24698,7.3628 5.43752,3.0422 10.30409,1.1889 12.49521,7.9e-4 -0.82593,-0.507 -4.47065,-2.8905 -6.24823,-7.36349 z m -2.16117,-15.6273 c 0.13093,0.16981 1.39263,1.7019 2.16116,3.6974 0.0773,-0.1994 0.85198,-1.9995 2.16135,-3.69759 -1.60754,-0.2383 -3.04837,-0.23821 -4.32251,1.9e-4 z m -6.976033,20.7542 c 1.838203,-0.9099 5.329933,-3.4484 6.499373,-7.8731 0.46373,-1.7546 1.27151,-7.35719 -2.94546,-11.73379 -1.42064,0.7077 -5.392173,3.09249 -6.618523,8.19349 -0.69051,2.8721 -0.61631,7.5415 3.06461,11.4134 z m 59.062283,-29.83125 c -1.2855,0.68063 -4.767,2.38293 -9.5736,1.66864 1.8173,2.25484 3.2012,5.18851 3.3253,9.03081 2.69159,-1.5676 6.11119,-4.5234 6.2483,-10.69945 z m -4.03891,-29.36711 c 0.9526,0.19077 5.1767,1.22403 8.41791,4.80454 1.45989,-4.07621 0.9588,-8.31287 -2.16901,-12.16755 -0.7229,1.78458 -2.51719,5.10602 -6.2489,7.36301 z m -19.04752,24.95011 c 1.03343,-0.0793 2.05481,-0.0391 3.06417,0.12076 -0.13626,-0.16569 -1.32532,-1.72922 -2.1579,-3.69955 -0.14032,0.16253 -1.51904,1.88599 -2.16109,3.70147 0.66895,-0.0685 1.08724,-0.10944 1.25482,-0.12268 z m -0.13235,-7.33609 c -0.0517,-0.43073 -0.08,-0.67008 -0.085,-0.71802 -0.054,-0.91397 -0.0774,-1.52338 -0.0704,-1.82824 0.009,-0.40118 0.10713,-2.23059 0.60452,-3.96807 0.0794,-0.27724 0.54291,-1.65 1.05151,-2.68694 0.14252,-0.24417 0.21378,-0.38171 0.21377,-0.41263 0,-0.0613 -0.0709,-0.12481 -0.0993,-0.17932 -0.008,-0.0153 -0.0843,-0.17087 -0.22886,-0.46658 -0.65044,-1.32611 -1.62163,-4.26373 -1.53961,-7.21032 0.007,-0.23512 0.0577,-0.82099 0.15343,-1.75755 -0.64279,-0.61263 -1.06284,-1.02895 -1.26019,-1.24893 -0.4946,-0.55127 -2.68916,-3.28613 -3.50782,-6.50198 -0.0119,-0.0467 -0.068,-0.28119 -0.16849,-0.70337 -0.27372,-0.11383 -0.41773,-0.17392 -0.43199,-0.18024 -0.13296,-0.0589 -1.58822,-0.74228 -2.55224,-1.38995 -0.52951,-0.35577 -2.9148,-2.13324 -4.47144,-4.53009 -0.0335,-0.0516 -0.0536,-0.14407 -0.1074,-0.17478 -0.0537,-0.0307 -0.14479,-0.002 -0.20676,-0.005 -0.0786,-0.004 -0.18307,-0.0131 -0.26154,-0.0187 -0.33133,-0.0232 -0.50569,-0.0356 -0.52308,-0.0373 -0.19984,-0.0192 -2.21759,-0.26911 -3.9156,-0.88018 -0.20085,-0.0723 -2.2254,-0.8517 -3.78423,-1.96635 -0.0198,-0.0141 -0.2152,-0.15802 -0.58634,-0.43173 -0.25361,0.0783 -0.40294,0.12387 -0.44804,0.13653 -0.33336,0.0937 -3.49005,0.9751 -6.9158,0.45694 -0.23467,-0.0355 -1.63317,-0.31854 -2.31317,-0.52786 -0.0592,-0.0182 -0.1348,-0.0763 -0.1959,-0.0656 -0.0611,0.0107 -0.11197,0.0907 -0.16133,0.12791 -0.0626,0.0471 -0.14875,0.10632 -0.2125,0.1519 -0.0142,0.0101 -0.15581,0.1114 -0.42494,0.30388 -0.65708,0.4456 -3.522123,2.31317 -7.487323,2.6946 -0.0391,0.004 -0.70603,0.0523 -0.78462,0.056 -0.062,0.003 -0.15301,-0.0261 -0.20674,0.005 -0.0537,0.0307 -0.0739,0.1231 -0.10739,0.17472 -0.48247,0.72067 -0.95874,1.34555 -1.42882,1.87454 -0.22875,0.25742 -2.43206,2.64471 -5.59491,4.0455 -0.27793,0.10828 -0.4219,0.16837 -0.43195,0.18021 -0.0399,0.047 -0.0269,0.14067 -0.0405,0.20053 -0.0512,0.20114 -0.0939,0.36876 -0.128,0.50287 -0.34616,1.21869 -0.75569,2.28497 -1.22854,3.19882 -0.88165,1.70389 -2.06143,3.22125 -3.53938,4.55205 0.0492,0.40676 0.0775,0.64607 0.085,0.71796 0.054,0.91401 0.0774,1.52345 0.0704,1.82832 -0.009,0.40118 -0.1071,2.23055 -0.60452,3.96808 -0.0397,0.13858 -0.41576,1.39074 -1.05152,2.68688 -0.14251,0.24418 -0.21378,0.38172 -0.21377,0.4126 0,0.0614 0.0709,0.12484 0.0994,0.17936 0.0992,0.20217 0.17544,0.35768 0.22883,0.46658 0.32523,0.66304 1.64213,3.52707 1.5396,7.2103 -0.005,0.17636 -0.056,0.7622 -0.1534,1.75759 0.56381,0.52466 0.98385,0.94095 1.26012,1.24888 0.4946,0.55127 2.68927,3.28613 3.50785,6.50201 0.0119,0.0467 0.0681,0.28119 0.16851,0.7034 0.27373,0.1138 0.4177,0.17386 0.43195,0.18018 0.26593,0.11776 1.58825,0.7423 2.55228,1.39 0.26475,0.17787 2.74179,1.8669 4.47141,4.53005 0.0335,0.0516 0.0537,0.1441 0.10743,0.17477 0.0537,0.0307 0.1448,0.002 0.20678,0.005 0.0786,0.004 0.18307,0.013 0.26151,0.0186 0.29654,0.0199 0.4709,0.0323 0.5231,0.0373 0.19984,0.0192 2.21756,0.2691 3.91557,0.88019 0.60255,0.21686 2.052183,0.72781 3.784213,1.96628 0.0198,0.0141 0.21518,0.15801 0.58629,0.43171 0.0154,0.003 0.16476,-0.0428 0.44808,-0.1365 0.33335,-0.0937 3.49006,-0.97511 6.91585,-0.45693 0.11732,0.0177 1.51983,0.28366 2.31314,0.52783 0.0592,0.0183 0.13476,0.0763 0.19586,0.0656 0.0611,-0.0106 0.11198,-0.0907 0.16134,-0.12779 0.0626,-0.0471 0.14873,-0.10639 0.2125,-0.15196 0.24003,-0.17327 0.3817,-0.27458 0.42495,-0.30388 0.32854,-0.22284 3.52217,-2.31311 7.48737,-2.69461 0.39211,-0.0312 0.65365,-0.0499 0.78461,-0.056 0.062,-0.003 0.15297,0.0261 0.20668,-0.005 0.0538,-0.0306 0.0739,-0.12312 0.1074,-0.17474 0.48247,-0.72068 0.95875,-1.34552 1.42883,-1.87452 0.4575,-0.51486 2.43201,-2.64481 5.59489,-4.04553 0.0143,-0.006 0.15826,-0.0664 0.43203,-0.18021 0.0399,-0.047 0.0268,-0.14066 0.0404,-0.20048 0.0811,-0.3185 0.12375,-0.48614 0.12802,-0.50287 0.0422,-0.16592 0.44047,-1.67573 1.22856,-3.19881 0.0921,-0.178 1.07157,-1.95707 2.27928,-3.30316 0.15787,-0.17597 0.57792,-0.5923 1.26015,-1.2489 z"
         fill="none"
         fill-opacity="1"
         stroke="#f40000"
         stroke-opacity="1"
         stroke-width="0.1"
         stroke-linecap="round"
         stroke-linejoin="round"
         id="path851"
         style="fill:#00ffff;stroke:#00c0a0;stroke-width:0.5;stroke-miterlimit:4;stroke-dasharray:0.5, 0.5;stroke-dashoffset:0;stroke-opacity:1" />
    </g>
  </g>
</svg>
